<?xml version="1.0" encoding="UTF-8"?>
<!-- Creator: CorelDRAW -->
<svg xmlns="http://www.w3.org/2000/svg" xml:space="preserve" width="99.06mm" height="214.376mm" version="1.1" style="shape-rendering:geometricPrecision; text-rendering:geometricPrecision; image-rendering:optimizeQuality; fill-rule:evenodd; clip-rule:evenodd"
viewBox="0 0 9906 21437.6"
 xmlns:xlink="http://www.w3.org/1999/xlink"
 xmlns:xodm="http://www.corel.com/coreldraw/odm/2003">
 <defs>
  <style type="text/css">
   <![CDATA[
    .fil3 {fill:#B4B5B4}
    .fil2 {fill:#7CB932;fill-rule:nonzero}
    .fil4 {fill:#1D1D1E;fill-rule:nonzero}
    .fil0 {fill:#1D1D1E;fill-rule:nonzero}
    .fil1 {fill:#2F4085;fill-rule:nonzero}
   ]]>
  </style>
 </defs>
 <g id="Слой_x0020_1">
  <metadata id="CorelCorpID_0Corel-Layer"/>
  <polygon class="fil0" points="-0,21437.6 9906,21437.6 9906,0 -0,0 "/>
  <g id="_2256758192">
   <path class="fil1" d="M6811.12 15975.53l0 -79.66 -79.68 0 0 79.66 0 79.68 79.68 0 0 -79.68zm2549.65 318.72l0 -79.67 0 -79.68 -79.66 0 0 -79.71 -79.67 0 0 79.71 -79.71 0 0 79.68 -79.67 0 0 79.67 79.67 0 79.71 0 0 79.66 0 79.67 0 79.71 0 79.67 0 79.68 0 53.09 0 79.71 -79.71 0 0 79.67 79.71 0 79.67 0 0 -79.67 0 -79.71 79.66 0 0 -53.09 0 -79.68 79.67 0 0 -79.67 0 -79.71 0 -79.67 0 -79.66 -79.67 0zm-398.37 610.85l0 -79.66 0 -79.67 0 -53.15 0 -79.67 0 -79.66 0 -79.67 79.66 0 0 -79.71 0 -79.67 -79.66 0 0 -79.68 0 -79.67 -79.67 0 0 -79.66 -79.68 0 0 79.66 -79.71 0 0 79.67 -79.67 0 0 79.68 79.67 0 0 79.67 79.71 0 0 79.71 -79.71 0 0 79.67 79.71 0 0 79.66 -79.71 0 0 79.67 79.71 0 0 53.15 -79.71 0 0 79.67 0 79.66 79.71 0 0 79.67 -79.71 0 0 79.67 0 79.72 79.71 0 79.68 0 0 -79.72 79.67 0 79.66 0 0 -79.67 79.67 0 0 -79.67 -79.67 0 -79.66 0zm-3505.79 79.67l-79.67 0 -79.67 0 0 -79.66 0 -79.67 0 -79.71 0 -53.11 0 -79.66 0 -79.67 0 -79.71 0 -79.67 0 -79.67 0 -79.66 79.67 0 0 -79.68 -79.67 0 -79.72 0 0 -79.67 -79.67 0 0 79.67 -79.67 0 0 79.68 -79.66 0 0 79.66 79.66 0 0 79.67 0 79.67 79.67 0 0 79.71 -79.67 0 0 79.67 0 79.66 0 53.11 79.67 0 0 79.71 -79.67 0 0 79.67 0 79.66 79.67 0 0 79.67 0 79.68 79.67 0 79.72 0 79.67 0 0 -79.68 79.67 0 0 -79.67zm79.67 79.69l79.67 0 0 79.67 79.66 0 0 79.66 79.73 0 0 -79.66 0 -79.67 79.66 0 0 -79.67 -79.66 0 0 -79.68 0 -79.71 0 -79.67 0 -53.09 0 -79.68 0 -79.71 0 -79.67 0 -79.66 0 -79.67 79.66 0 0 -79.67 -79.66 0 0 -79.66 -79.73 0 0 -79.73 -79.66 0 0 79.73 -79.67 0 0 79.66 0 79.67 0 79.67 0 79.66 0 79.67 79.67 0 0 79.71 -79.67 0 0 79.68 0 53.09 0 79.67 0 79.71 -79.67 0 0 79.68 79.67 0 0 79.67zm796.78 -239.03l0 -79.67 79.66 0 0 -53.15 0 -79.66 79.67 0 0 79.66 79.71 0 0 53.15 79.67 0 0 79.67 -79.67 0 0 79.67 79.67 0 0 79.66 -79.67 0 -79.71 0 -79.67 0 -79.66 0 0 -79.66 0 -79.67zm239.04 -451.5l0 79.68 -79.71 0 0 79.67 -79.67 0 -79.66 0 0 -79.67 -79.68 0 0 -79.68 79.68 0 0 -79.71 79.66 0 79.67 0 79.71 0 0 79.71zm-239.04 770.21l79.66 0 79.67 0 79.71 0 79.67 0 0 -79.66 79.67 0 79.66 0 0 -79.72 0 -79.66 0 -79.67 0 -79.67 0 -53.15 0 -79.66 0 -79.67 -79.66 0 -79.67 0 0 -79.67 0 -79.68 0 -79.71 79.67 0 0 -79.66 79.66 0 0 -79.67 -79.66 0 -79.67 0 -79.67 0 -79.71 0 0 -79.67 -79.67 0 -79.66 0 0 79.67 -79.68 0 0 79.67 -79.67 0 -79.71 0 0 79.66 0 79.71 0 79.68 0 79.67 0 79.67 0 79.66 79.71 0 79.67 0 0 53.15 0 79.67 0 79.67 -79.67 0 0 79.66 -79.71 0 0 79.72 0 79.66 79.71 0 79.67 0 79.68 0zm876.44 -0.01l79.66 0 79.68 0 79.71 0 0 -79.66 79.67 0 0 -79.67 -79.67 0 -79.71 0 0 -79.71 0 -79.68 -79.68 0 0 -79.67 79.68 0 0 -53.09 -79.68 0 0 -79.71 0 -79.67 79.68 0 0 -79.68 -79.68 0 0 -79.67 79.68 0 0 -79.66 -79.68 0 0 -79.67 79.68 0 79.71 0 79.67 0 0 -79.71 -79.67 0 0 -79.67 -79.71 0 -79.68 0 0 -79.68 79.68 0 0 -79.66 0 -79.67 -79.68 0 0 79.67 -79.66 0 0 79.66 -79.67 0 0 79.68 0 79.67 -79.67 0 0 79.71 79.67 0 0 79.67 0 79.66 0 79.67 0 79.68 0 79.67 0 79.71 0 53.09 0 79.67 0 79.68 -79.67 0 0 79.71 0 79.67 79.67 0 79.67 0 0 79.66zm956.12 -159.36l-79.67 0 0 -79.66 -79.66 0 -79.72 0 0 -79.67 79.72 0 0 -79.71 -79.72 0 0 -53.11 79.72 0 0 -79.66 -79.72 0 0 -79.67 79.72 0 0 -79.71 -79.72 0 0 -79.67 79.72 0 0 -79.67 79.66 0 79.67 0 0 79.67 79.68 0 0 79.67 0 79.71 0 79.67 0 79.66 0 53.11 0 79.71 0 79.67 0 79.66 -79.68 0zm-159.33 159.35l79.66 0 79.67 0 79.68 0 0 -79.68 79.65 0 79.73 0 0 -79.67 79.66 0 0 -79.66 -79.66 0 0 -79.67 79.66 0 0 -79.71 -79.66 0 0 -53.11 79.66 0 0 -79.66 -79.66 0 0 -79.67 79.66 0 0 -79.71 -79.66 0 0 -79.67 79.66 0 0 -79.67 -79.66 0 0 -79.66 -79.73 0 0 -79.68 -79.65 0 -79.68 0 -79.67 0 0 -79.67 -79.66 0 0 79.67 -79.72 0 0 79.68 -79.66 0 -79.67 0 0 79.66 0 79.67 0 79.67 0 79.71 0 79.67 0 79.66 0 53.11 0 79.71 0 79.67 0 79.66 -79.68 0 0 79.67 79.68 0 79.67 0 79.66 0 0 79.68 79.72 0zm637.37 79.69l79.67 0 0 -79.65 -79.67 0 0 79.65zm-5258.66 0l-79.66 0 0 79.66 -79.67 0 -79.71 0 0 79.68 0 79.71 0 79.67 0 79.67 -79.67 0 0 79.67 0 79.66 79.67 0 0 79.68 0 79.71 0 79.67 0 79.67 0 79.66 0 79.67 0 79.71 0 79.68 0 79.67 -79.67 0 0 79.67 79.67 0 79.71 0 0 79.66 79.67 0 79.66 0 79.67 0 0 -79.66 79.68 0 0 -79.67 -79.68 0 -79.67 0 0 -79.67 0 -79.68 0 -79.71 -79.66 0 0 -79.67 79.66 0 0 -79.66 -79.66 0 0 -79.67 79.66 0 0 -79.67 -79.66 0 0 -79.71 79.66 0 0 -79.68 0 -79.66 79.67 0 79.68 0 0 -79.67 -79.68 0 -79.67 0 0 -79.67 0 -79.67 0 -79.71 79.67 0 79.68 0 0 -79.68 0 -79.66 -79.68 0 -79.67 0zm5258.68 159.35l0 79.67 79.67 0 0 -79.67 0 -79.67 -79.67 0 0 79.67zm-4063.52 0l0 -79.67 -79.67 0 -79.67 0 -79.71 0 -79.67 0 0 -79.66 0 -79.71 79.67 0 0 -79.68 79.71 0 79.67 0 0 79.68 79.67 0 0 79.71 0 79.66 79.66 0 0 79.67 -79.66 0zm-239.05 -1168.6l0 79.68 79.71 0 0 79.67 0 79.71 0 79.67 0 79.66 0 79.67 0 53.15 0 79.67 0 79.66 0 79.67 -79.71 0 -79.67 0 0 -79.67 -79.68 0 0 -79.66 0 -79.67 0 -53.15 0 -79.67 0 -79.66 0 -79.67 0 -79.71 0 -79.67 79.68 0 0 -79.68 79.67 0zm398.38 1248.27l0 -79.67 79.72 0 0 -79.67 0 -79.66 0 -79.71 -79.72 0 0 -79.68 -79.67 0 0 -79.67 0 -79.67 0 -79.66 0 -79.67 0 -53.15 0 -79.67 0 -79.66 0 -79.67 0 -79.71 79.67 0 79.72 0 0 -79.67 0 -79.68 0 -79.67 -79.72 0 0 79.67 -79.67 0 -79.66 0 0 -79.67 -79.67 0 -79.67 0 0 -79.66 -79.71 0 -79.67 0 0 79.66 -79.68 0 -79.66 0 0 79.67 -79.67 0 -79.67 0 0 79.68 79.67 0 0 79.67 -79.67 0 0 79.71 79.67 0 0 79.67 -79.67 0 0 79.66 79.67 0 0 79.67 -79.67 0 0 53.15 79.67 0 0 79.67 -79.67 0 0 79.66 79.67 0 0 79.67 0 79.67 79.67 0 0 79.68 79.66 0 0 79.71 -79.66 0 0 79.66 -79.67 0 0 79.67 0 79.67 79.67 0 79.66 0 79.68 0 79.67 0 79.71 0 79.67 0 79.67 0 79.66 0 79.67 0zm4222.91 -79.67l0 79.67 79.66 0 79.67 0 0 -79.67 -79.67 0 -79.66 0zm-159.36 159.38l79.67 0 0 -79.67 -79.67 0 0 79.67zm-3585.46 79.65l-79.67 0 -79.67 0 0 79.67 -79.72 0 -79.67 0 0 -79.67 -79.66 0 -79.67 0 -79.67 0 0 79.67 0 79.67 79.67 0 0 79.72 0 79.67 0 79.67 0 79.66 0 79.67 0 79.67 0 79.71 0 79.68 0 79.66 -79.67 0 0 79.67 79.67 0 79.67 0 0 79.67 79.66 0 79.67 0 79.72 0 0 -79.67 79.67 0 0 -79.67 -79.67 0 -79.72 0 0 -79.66 0 -79.68 0 -79.71 -79.67 0 0 -79.67 79.67 0 0 -79.67 0 -79.66 -79.67 0 0 -79.67 79.67 0 0 -79.67 0 -79.72 79.72 0 79.67 0 0 79.72 79.67 0 79.66 0 0 -79.72 0 -79.67 -79.66 0 0 -79.67zm3346.43 0l-79.67 0 -79.67 0 0 79.67 -79.72 0 -79.67 0 0 -79.67 -79.66 0 -79.67 0 -79.67 0 0 79.67 0 79.67 79.67 0 0 79.72 0 79.67 0 79.67 0 79.66 0 79.67 0 79.67 0 79.71 0 79.68 0 79.66 -79.67 0 0 79.67 79.67 0 79.67 0 0 79.67 79.66 0 79.67 0 79.72 0 0 -79.67 79.67 0 0 -79.67 -79.67 0 -79.72 0 0 -79.66 0 -79.68 0 -79.71 0 -79.67 0 -79.67 0 -79.66 0 -79.67 0 -79.67 0 -79.72 79.72 0 79.67 0 0 79.72 79.67 0 79.67 0 0 -79.72 0 -79.67 -79.67 0 0 -79.67zm-4382.23 876.45l-79.68 0 0 -79.66 -79.67 0 -79.71 0 0 -79.68 79.71 0 0 -79.71 -79.71 0 0 -79.67 79.71 0 0 -79.67 -79.71 0 0 -79.66 79.71 0 0 -79.67 -79.71 0 0 -79.67 79.71 0 0 -79.72 79.67 0 0 79.72 79.68 0 79.67 0 0 79.67 0 79.67 0 79.66 0 79.67 0 79.67 0 79.71 0 79.68 0 79.66 -79.67 0zm239.05 -717.11l0 -79.67 -79.72 0 -79.66 0 0 -79.67 -79.67 0 -79.68 0 -79.67 0 -79.71 0 0 79.67 -79.67 0 0 79.67 -79.66 0 0 79.72 0 79.67 0 79.67 0 79.66 0 79.67 0 79.67 0 79.71 0 79.68 -79.67 0 0 79.66 79.67 0 0 79.67 79.66 0 79.67 0 0 79.67 79.71 0 79.67 0 79.68 0 79.67 0 0 -79.67 79.66 0 79.72 0 0 -79.67 0 -79.66 79.66 0 0 -79.68 -79.66 0 0 -79.71 79.66 0 0 -79.67 -79.66 0 0 -79.67 79.66 0 0 -79.66 -79.66 0 0 -79.67 79.66 0 0 -79.67 -79.66 0 0 -79.72zm1593.51 0.02l-79.66 0 0 -79.66 -79.67 0 0 -79.67 -79.71 0 -79.67 0 0 79.67 -79.68 0 -79.67 0 0 79.66 -79.66 0 0 79.67 0 79.67 0 79.71 79.66 0 0 79.67 -79.66 0 0 79.66 0 79.68 0 79.67 0 79.67 0 79.71 0 79.67 79.66 0 0 79.66 79.67 0 79.68 0 0 79.68 79.67 0 0 -79.68 79.71 0 0 -79.66 79.67 0 79.66 0 0 -79.67 -79.66 0 -79.67 0 -79.71 0 -79.67 0 0 -79.71 0 -79.67 0 -79.67 0 -79.68 79.67 0 0 -79.66 -79.67 0 0 -79.67 0 -79.71 0 -79.67 79.67 0 0 79.67 79.71 0 0 79.71 79.67 0 0 -79.71 79.66 0 79.67 0 0 -79.67 -79.67 0 0 -79.67zm956.13 0l0 -79.66 0 -79.67 -79.67 0 -79.67 0 -79.71 0 0 79.67 -79.67 0 0 79.66 79.67 0 0 79.67 79.71 0 0 79.67 0 79.71 -79.71 0 0 79.67 79.71 0 0 79.66 0 79.68 0 79.67 -79.71 0 0 79.67 79.71 0 0 79.71 -79.71 0 -79.67 0 0 -79.71 -79.66 0 -79.68 0 0 -79.67 79.68 0 0 -79.67 -79.68 0 0 -79.68 79.68 0 0 -79.66 0 -79.67 -79.68 0 0 -79.71 79.68 0 0 -79.67 79.66 0 0 -79.67 -79.66 0 -79.68 0 0 -79.66 0 -79.67 -79.67 0 0 -79.72 0 -79.67 0 -79.67 0 -79.67 -79.67 0 0 79.67 -79.71 0 0 79.67 0 79.67 0 79.72 0 79.67 0 79.66 79.71 0 0 79.67 0 79.67 0 79.71 0 79.67 0 79.66 -79.71 0 0 79.68 79.71 0 0 79.67 -79.71 0 0 79.67 0 79.71 79.71 0 0 79.67 79.67 0 79.67 0 0 79.66 79.68 0 79.66 0 79.67 0 79.71 0 0 -79.66 79.67 0 79.67 0 0 -79.67 0 -79.71 0 -79.67 79.66 0 0 -79.67 -79.66 0 0 -79.68 79.66 0 0 -79.66 -79.66 0 0 -79.67 0 -79.71 79.66 0 0 -79.67 -79.66 0 0 -79.67zm796.77 0l0 -79.66 -79.66 0 0 -79.67 -79.68 0 -79.71 0 -79.67 0 0 79.67 -79.67 0 -79.67 0 0 79.66 0 79.67 0 79.67 -79.66 0 0 79.71 79.66 0 0 79.67 0 79.66 -79.66 0 0 79.68 79.66 0 0 79.67 0 79.67 -79.66 0 0 79.71 0 79.67 79.66 0 79.67 0 0 79.66 79.67 0 0 79.68 79.67 0 0 -79.68 79.71 0 0 -79.66 79.68 0 79.66 0 0 -79.67 -79.66 0 -79.68 0 -79.71 0 0 -79.71 -79.67 0 0 -79.67 0 -79.67 79.67 0 0 -79.68 0 -79.66 -79.67 0 0 -79.67 0 -79.71 0 -79.67 79.67 0 79.71 0 0 79.67 0 79.71 79.68 0 0 -79.71 79.66 0 79.67 0 0 -79.67 -79.67 0 0 -79.67zm-1991.93 318.71l79.67 0 0 -79.66 -79.67 0 0 79.66zm1752.9 0l79.67 0 0 -79.66 -79.67 0 0 79.66z"/>
   <path class="fil2" d="M6672 16392.89l0 -79.66 -79.67 0 0 79.66 0 79.67 79.67 0 0 -79.67zm2549.66 318.71l0 -79.67 0 -79.67 -79.67 0 0 -79.71 -79.66 0 0 79.71 -79.73 0 0 79.67 -79.66 0 0 79.67 79.66 0 79.73 0 0 79.66 0 79.68 0 79.71 0 79.67 0 79.67 0 53.09 0 79.72 -79.73 0 0 79.67 79.73 0 79.66 0 0 -79.67 0 -79.72 79.67 0 0 -53.09 0 -79.67 79.67 0 0 -79.67 0 -79.71 0 -79.68 0 -79.66 -79.67 0zm-398.39 610.86l0 -79.66 0 -79.68 0 -53.14 0 -79.67 0 -79.66 0 -79.67 79.67 0 0 -79.72 0 -79.67 -79.67 0 0 -79.67 0 -79.67 -79.66 0 0 -79.66 -79.67 0 0 79.66 -79.71 0 0 79.67 -79.67 0 0 79.67 79.67 0 0 79.67 79.71 0 0 79.72 -79.71 0 0 79.67 79.71 0 0 79.66 -79.71 0 0 79.67 79.71 0 0 53.14 -79.71 0 0 79.68 0 79.66 79.71 0 0 79.67 -79.71 0 0 79.67 0 79.71 79.71 0 79.67 0 0 -79.71 79.66 0 79.67 0 0 -79.67 79.67 0 0 -79.67 -79.67 0 -79.67 0zm-3505.79 79.67l-79.66 0 -79.67 0 0 -79.66 0 -79.67 0 -79.72 0 -53.1 0 -79.66 0 -79.67 0 -79.71 0 -79.68 0 -79.67 0 -79.66 79.67 0 0 -79.67 -79.67 0 -79.71 0 0 -79.67 -79.67 0 0 79.67 -79.67 0 0 79.67 -79.68 0 0 79.66 79.68 0 0 79.67 0 79.68 79.67 0 0 79.71 -79.67 0 0 79.67 0 79.66 0 53.1 79.67 0 0 79.72 -79.67 0 0 79.67 0 79.66 79.67 0 0 79.67 0 79.67 79.67 0 79.71 0 79.67 0 0 -79.67 79.66 0 0 -79.67zm79.69 79.68l79.66 0 0 79.68 79.67 0 0 79.65 79.71 0 0 -79.65 0 -79.68 79.67 0 0 -79.67 -79.67 0 0 -79.67 0 -79.71 0 -79.68 0 -53.09 0 -79.67 0 -79.71 0 -79.67 0 -79.66 0 -79.68 79.67 0 0 -79.67 -79.67 0 0 -79.66 -79.71 0 0 -79.72 -79.67 0 0 79.72 -79.66 0 0 79.66 0 79.67 0 79.68 0 79.66 0 79.67 79.66 0 0 79.71 -79.66 0 0 79.67 0 53.09 0 79.68 0 79.71 -79.67 0 0 79.67 79.67 0 0 79.67zm796.76 -239.03l0 -79.67 79.67 0 0 -53.14 0 -79.66 79.67 0 0 79.66 79.72 0 0 53.14 79.67 0 0 79.67 -79.67 0 0 79.68 79.67 0 0 79.65 -79.67 0 -79.72 0 -79.67 0 -79.67 0 0 -79.65 0 -79.68zm239.06 -451.49l0 79.67 -79.72 0 0 79.67 -79.67 0 -79.67 0 0 -79.67 -79.66 0 0 -79.67 79.66 0 0 -79.71 79.67 0 79.67 0 79.72 0 0 79.71zm-239.06 770.21l79.67 0 79.67 0 79.72 0 79.67 0 0 -79.66 79.66 0 79.67 0 0 -79.73 0 -79.65 0 -79.68 0 -79.67 0 -53.14 0 -79.66 0 -79.68 -79.67 0 -79.66 0 0 -79.67 0 -79.67 0 -79.71 79.66 0 0 -79.66 79.67 0 0 -79.67 -79.67 0 -79.66 0 -79.67 0 -79.72 0 0 -79.68 -79.67 0 -79.67 0 0 79.68 -79.66 0 0 79.67 -79.67 0 -79.71 0 0 79.66 0 79.71 0 79.67 0 79.67 0 79.68 0 79.66 79.71 0 79.67 0 0 53.14 0 79.67 0 79.68 -79.67 0 0 79.65 -79.71 0 0 79.73 0 79.66 79.71 0 79.67 0 79.66 0zm876.45 -0.01l79.67 0 79.67 0 79.71 0 0 -79.66 79.67 0 0 -79.68 -79.67 0 -79.71 0 0 -79.71 0 -79.67 -79.67 0 0 -79.67 79.67 0 0 -53.1 -79.67 0 0 -79.71 0 -79.67 79.67 0 0 -79.67 -79.67 0 0 -79.67 79.67 0 0 -79.66 -79.67 0 0 -79.67 79.67 0 79.71 0 79.67 0 0 -79.72 -79.67 0 0 -79.67 -79.71 0 -79.67 0 0 -79.67 79.67 0 0 -79.66 0 -79.67 -79.67 0 0 79.67 -79.67 0 0 79.66 -79.66 0 0 79.67 0 79.67 -79.67 0 0 79.72 79.67 0 0 79.67 0 79.66 0 79.67 0 79.67 0 79.67 0 79.71 0 53.1 0 79.67 0 79.67 -79.67 0 0 79.71 0 79.68 79.67 0 79.66 0 0 79.66zm956.13 -159.36l-79.67 0 0 -79.66 -79.68 0 -79.71 0 0 -79.67 79.71 0 0 -79.72 -79.71 0 0 -53.1 79.71 0 0 -79.66 -79.71 0 0 -79.67 79.71 0 0 -79.71 -79.71 0 0 -79.68 79.71 0 0 -79.67 79.68 0 79.67 0 0 79.67 79.66 0 0 79.68 0 79.71 0 79.67 0 79.66 0 53.1 0 79.72 0 79.67 0 79.66 -79.66 0zm-159.35 159.34l79.68 0 79.67 0 79.66 0 0 -79.67 79.67 0 79.71 0 0 -79.67 79.67 0 0 -79.66 -79.67 0 0 -79.67 79.67 0 0 -79.72 -79.67 0 0 -53.1 79.67 0 0 -79.66 -79.67 0 0 -79.67 79.67 0 0 -79.71 -79.67 0 0 -79.68 79.67 0 0 -79.67 -79.67 0 0 -79.66 -79.71 0 0 -79.67 -79.67 0 -79.66 0 -79.67 0 0 -79.67 -79.68 0 0 79.67 -79.71 0 0 79.67 -79.67 0 -79.66 0 0 79.66 0 79.67 0 79.68 0 79.71 0 79.67 0 79.66 0 53.1 0 79.72 0 79.67 0 79.66 -79.67 0 0 79.67 79.67 0 79.66 0 79.67 0 0 79.67 79.71 0zm637.38 79.7l79.67 0 0 -79.66 -79.67 0 0 79.66zm-5258.65 0l-79.68 0 0 79.66 -79.67 0 -79.71 0 0 79.67 0 79.71 0 79.68 0 79.67 -79.66 0 0 79.67 0 79.66 79.66 0 0 79.67 0 79.71 0 79.68 0 79.67 0 79.66 0 79.67 0 79.71 0 79.67 0 79.67 -79.66 0 0 79.68 79.66 0 79.71 0 0 79.66 79.67 0 79.68 0 79.67 0 0 -79.66 79.66 0 0 -79.68 -79.66 0 -79.67 0 0 -79.67 0 -79.67 0 -79.71 -79.68 0 0 -79.67 79.68 0 0 -79.66 -79.68 0 0 -79.67 79.68 0 0 -79.68 -79.68 0 0 -79.71 79.68 0 0 -79.67 0 -79.66 79.67 0 79.66 0 0 -79.67 -79.66 0 -79.67 0 0 -79.67 0 -79.68 0 -79.71 79.67 0 79.66 0 0 -79.67 0 -79.66 -79.66 0 -79.67 0zm5258.68 159.34l0 79.68 79.67 0 0 -79.68 0 -79.67 -79.67 0 0 79.67zm-4063.53 0l0 -79.67 -79.66 0 -79.68 0 -79.71 0 -79.67 0 0 -79.66 0 -79.71 79.67 0 0 -79.67 79.71 0 79.68 0 0 79.67 79.66 0 0 79.71 0 79.66 79.67 0 0 79.67 -79.67 0zm-239.05 -1168.59l0 79.67 79.71 0 0 79.67 0 79.72 0 79.67 0 79.66 0 79.67 0 53.14 0 79.68 0 79.66 0 79.67 -79.71 0 -79.67 0 0 -79.67 -79.67 0 0 -79.66 0 -79.68 0 -53.14 0 -79.67 0 -79.66 0 -79.67 0 -79.72 0 -79.67 79.67 0 0 -79.67 79.67 0zm398.39 1248.27l0 -79.68 79.71 0 0 -79.67 0 -79.66 0 -79.71 -79.71 0 0 -79.67 -79.67 0 0 -79.67 0 -79.67 0 -79.66 0 -79.68 0 -53.14 0 -79.67 0 -79.66 0 -79.67 0 -79.72 79.67 0 79.71 0 0 -79.67 0 -79.67 0 -79.67 -79.71 0 0 79.67 -79.67 0 -79.67 0 0 -79.67 -79.66 0 -79.68 0 0 -79.66 -79.71 0 -79.67 0 0 79.66 -79.67 0 -79.67 0 0 79.67 -79.66 0 -79.67 0 0 79.67 79.67 0 0 79.67 -79.67 0 0 79.72 79.67 0 0 79.67 -79.67 0 0 79.66 79.67 0 0 79.67 -79.67 0 0 53.14 79.67 0 0 79.68 -79.67 0 0 79.66 79.67 0 0 79.67 0 79.67 79.66 0 0 79.67 79.67 0 0 79.71 -79.67 0 0 79.66 -79.66 0 0 79.67 0 79.68 79.66 0 79.67 0 79.67 0 79.67 0 79.71 0 79.68 0 79.66 0 79.67 0 79.67 0zm4222.89 -79.68l0 79.68 79.67 0 79.67 0 0 -79.68 -79.67 0 -79.67 0zm-159.34 159.39l79.67 0 0 -79.67 -79.67 0 0 79.67zm-3585.48 79.64l-79.66 0 -79.67 0 0 79.68 -79.71 0 -79.67 0 0 -79.68 -79.67 0 -79.68 0 -79.66 0 0 79.68 0 79.67 79.66 0 0 79.71 0 79.67 0 79.68 0 79.65 0 79.68 0 79.67 0 79.71 0 79.67 0 79.66 -79.66 0 0 79.67 79.66 0 79.68 0 0 79.68 79.67 0 79.67 0 79.71 0 0 -79.68 79.67 0 0 -79.67 -79.67 0 -79.71 0 0 -79.66 0 -79.67 0 -79.71 -79.67 0 0 -79.67 79.67 0 0 -79.68 0 -79.65 -79.67 0 0 -79.68 79.67 0 0 -79.67 0 -79.71 79.71 0 79.67 0 0 79.71 79.66 0 79.68 0 0 -79.71 0 -79.67 -79.68 0 0 -79.68zm3346.45 0l-79.68 0 -79.67 0 0 79.68 -79.71 0 -79.67 0 0 -79.68 -79.67 0 -79.66 0 -79.68 0 0 79.68 0 79.67 79.68 0 0 79.71 0 79.67 0 79.68 0 79.65 0 79.68 0 79.67 0 79.71 0 79.67 0 79.66 -79.68 0 0 79.67 79.68 0 79.66 0 0 79.68 79.67 0 79.67 0 79.71 0 0 -79.68 79.67 0 0 -79.67 -79.67 0 -79.71 0 0 -79.66 0 -79.67 0 -79.71 0 -79.67 0 -79.68 0 -79.65 0 -79.68 0 -79.67 0 -79.71 79.71 0 79.67 0 0 79.71 79.68 0 79.66 0 0 -79.71 0 -79.67 -79.66 0 0 -79.68zm-4382.24 876.45l-79.67 0 0 -79.66 -79.67 0 -79.71 0 0 -79.67 79.71 0 0 -79.71 -79.71 0 0 -79.67 79.71 0 0 -79.68 -79.71 0 0 -79.65 79.71 0 0 -79.68 -79.71 0 0 -79.67 79.71 0 0 -79.71 79.67 0 0 79.71 79.67 0 79.66 0 0 79.67 0 79.68 0 79.65 0 79.68 0 79.67 0 79.71 0 79.67 0 79.66 -79.66 0zm239.04 -717.1l0 -79.67 -79.71 0 -79.67 0 0 -79.68 -79.66 0 -79.67 0 -79.67 0 -79.71 0 0 79.68 -79.68 0 0 79.67 -79.67 0 0 79.71 0 79.67 0 79.68 0 79.65 0 79.68 0 79.67 0 79.71 0 79.67 -79.66 0 0 79.66 79.66 0 0 79.67 79.67 0 79.68 0 0 79.68 79.71 0 79.67 0 79.67 0 79.66 0 0 -79.68 79.67 0 79.71 0 0 -79.67 0 -79.66 79.68 0 0 -79.67 -79.68 0 0 -79.71 79.68 0 0 -79.67 -79.68 0 0 -79.68 79.68 0 0 -79.65 -79.68 0 0 -79.68 79.68 0 0 -79.67 -79.68 0 0 -79.71zm1593.53 0.01l-79.67 0 0 -79.66 -79.68 0 0 -79.67 -79.71 0 -79.66 0 0 79.67 -79.67 0 -79.67 0 0 79.66 -79.67 0 0 79.67 0 79.68 0 79.71 79.67 0 0 79.67 -79.67 0 0 79.66 0 79.67 0 79.67 0 79.68 0 79.71 0 79.67 79.67 0 0 79.66 79.67 0 79.67 0 0 79.67 79.66 0 0 -79.67 79.71 0 0 -79.66 79.68 0 79.67 0 0 -79.67 -79.67 0 -79.68 0 -79.71 0 -79.66 0 0 -79.71 0 -79.68 0 -79.67 0 -79.67 79.66 0 0 -79.66 -79.66 0 0 -79.67 0 -79.71 0 -79.68 79.66 0 0 79.68 79.71 0 0 79.71 79.68 0 0 -79.71 79.67 0 79.67 0 0 -79.68 -79.67 0 0 -79.67zm956.12 0l0 -79.66 0 -79.67 -79.66 0 -79.67 0 -79.72 0 0 79.67 -79.67 0 0 79.66 79.67 0 0 79.67 79.72 0 0 79.68 0 79.71 -79.72 0 0 79.67 79.72 0 0 79.66 0 79.67 0 79.67 -79.72 0 0 79.68 79.72 0 0 79.71 -79.72 0 -79.67 0 0 -79.71 -79.67 0 -79.67 0 0 -79.68 79.67 0 0 -79.67 -79.67 0 0 -79.67 79.67 0 0 -79.66 0 -79.67 -79.67 0 0 -79.71 79.67 0 0 -79.68 79.67 0 0 -79.67 -79.67 0 -79.67 0 0 -79.66 0 -79.67 -79.66 0 0 -79.71 0 -79.67 0 -79.68 0 -79.67 -79.67 0 0 79.67 -79.72 0 0 79.68 0 79.67 0 79.71 0 79.67 0 79.66 79.72 0 0 79.67 0 79.68 0 79.71 0 79.67 0 79.66 -79.72 0 0 79.67 79.72 0 0 79.67 -79.72 0 0 79.68 0 79.71 79.72 0 0 79.67 79.67 0 79.66 0 0 79.66 79.67 0 79.67 0 79.67 0 79.72 0 0 -79.66 79.67 0 79.66 0 0 -79.67 0 -79.71 0 -79.68 79.67 0 0 -79.67 -79.67 0 0 -79.67 79.67 0 0 -79.66 -79.67 0 0 -79.67 0 -79.71 79.67 0 0 -79.68 -79.67 0 0 -79.67zm796.77 0l0 -79.66 -79.67 0 0 -79.67 -79.67 0 -79.71 0 -79.66 0 0 79.67 -79.68 0 -79.67 0 0 79.66 0 79.67 0 79.68 -79.67 0 0 79.71 79.67 0 0 79.67 0 79.66 -79.67 0 0 79.67 79.67 0 0 79.67 0 79.68 -79.67 0 0 79.71 0 79.67 79.67 0 79.67 0 0 79.66 79.68 0 0 79.67 79.66 0 0 -79.67 79.71 0 0 -79.66 79.67 0 79.67 0 0 -79.67 -79.67 0 -79.67 0 -79.71 0 0 -79.71 -79.66 0 0 -79.68 0 -79.67 79.66 0 0 -79.67 0 -79.66 -79.66 0 0 -79.67 0 -79.71 0 -79.68 79.66 0 79.71 0 0 79.68 0 79.71 79.67 0 0 -79.71 79.67 0 79.67 0 0 -79.68 -79.67 0 0 -79.67zm-1991.92 318.72l79.67 0 0 -79.66 -79.67 0 0 79.66zm1752.89 0l79.67 0 0 -79.66 -79.67 0 0 79.66z"/>
  </g>
  <path class="fil2" d="M2077.02 3525.15l-358.47 0 -68.76 -1194.87 840.39 0 0 338.58 -447.54 0 34.38 856.29zm659.7 0l223.05 -419.13 -418.38 -771.72 0 -4.02 392.31 0 221.04 460.02 4.02 0 221.07 -460.02 392.25 0 0 4.02 -436.11 804.48 -206.43 386.37 -392.82 0zm896.43 -601.38c0,-378.39 250.89,-623.34 613.35,-623.34 326.61,0 537.69,199.11 567.54,517.8l-346.5 55.77c-23.88,-167.31 -89.61,-252.9 -233.01,-252.9 -167.28,0 -244.95,139.35 -244.95,302.67 0,195.12 79.65,312.63 248.94,312.63 143.37,0 199.17,-89.58 231.03,-262.89l340.53 47.85c-27.96,314.61 -248.94,533.64 -569.58,533.64 -372.39,0 -607.35,-252.9 -607.35,-631.23zm1201.23 -593.46l987.78 0 0 338.52 -314.67 0 0 856.32 -358.44 0 0 -856.32 -314.67 0 0 -338.52zm1857.99 589.47c0,-159.36 -83.67,-298.71 -264.9,-298.71 -181.23,0 -264.87,139.35 -264.87,298.71 0,197.16 81.66,316.62 264.87,316.62 183.21,0 264.9,-119.46 264.9,-316.62zm-886.23 3.96c0,-364.41 242.97,-623.31 621.33,-623.31 384.33,0 621.27,258.9 621.27,623.31 0,364.44 -225,631.26 -621.27,631.26 -396.3,0 -621.33,-266.82 -621.33,-631.26zm1843.89 -647.22l-230.97 -187.17 61.74 -97.59 199.08 99.57 199.17 -99.57 61.77 97.59 -229.08 187.17 -61.71 0zm-51.75 1248.6l-493.86 0 0 -1194.81 338.52 0 0 384.33c0,97.56 -2.01,223.05 -5.97,360.48l5.97 0c41.82,-137.43 101.58,-302.7 147.33,-426.21l117.54 -318.6 547.62 0 0 1194.81 -338.58 0 0 -382.29c0,-105.54 4.02,-292.77 9.99,-454.08l-5.97 0c-53.79,153.33 -131.46,350.49 -169.26,448.08l-153.33 388.29z"/>
  <rect class="fil3" x="1651" y="4792.47" width="6603.99" height="1524"/>
  <rect class="fil3" x="1651" y="8221.44" width="6603.99" height="1524"/>
  <rect class="fil3" x="1651" y="11650.4" width="6603.99" height="1524"/>
  <rect class="fil3" x="1651" y="15079.37" width="6603.99" height="1524"/>
  <rect class="fil3" x="1651" y="18508.34" width="6603.99" height="1524"/>
  <path class="fil4" d="M2286.51 12766.33c-87.49,0.56 -153.81,-29.07 -198.97,-88.9 -45.15,-59.83 -67.73,-148.16 -67.73,-265 0,-116.84 22.58,-205.17 67.73,-265 45.16,-59.83 111.48,-89.46 198.97,-88.9 87.48,-0.56 153.81,29.07 198.96,88.9 45.15,59.83 67.73,148.16 67.73,265 0,116.84 -22.58,205.17 -67.73,265 -45.15,59.83 -111.48,89.46 -198.96,88.9zm0 -129.54c41.77,0 72.81,-18.48 93.13,-55.45 20.32,-36.97 30.76,-93.28 31.33,-168.91 -0.57,-75.63 -11.01,-131.94 -31.33,-168.91 -20.32,-36.97 -51.36,-55.45 -93.13,-55.45 -41.77,0 -72.81,18.48 -93.13,55.45 -20.32,36.97 -30.77,93.28 -31.33,168.91 0.56,75.63 11.01,131.94 31.33,168.91 20.32,36.97 51.36,55.45 93.13,55.45z"/>
  <polygon id="_1" class="fil4" points="2811.43,12751.09 2810.58,12352.32 2642.1,12353.16 2640.4,12230.4 3117.07,12231.25 3117.91,12352.32 2948.58,12353.16 2947.74,12751.09 "/>
  <path id="_2" class="fil4" d="M3487.05 12767.18c-69.43,0 -123.47,-15.67 -162.14,-46.99 -38.66,-31.33 -59.69,-77.19 -63.07,-137.58l129.54 0c3.95,22.57 14.25,39.65 30.9,51.22 16.65,11.57 38.24,17.36 64.77,17.36 16.93,0 31.75,-2.4 44.45,-7.2 12.7,-4.8 22.43,-11.57 29.21,-20.32 6.77,-8.75 10.44,-18.77 11,-30.06 0,-18.06 -5.92,-31.89 -17.78,-41.48 -11.85,-9.6 -28.5,-14.4 -49.95,-14.4l-61.81 0 -0.84 -96.51 67.73 0c21.45,0 38.1,-4.38 49.95,-13.13 11.86,-8.75 17.5,-21.59 16.94,-38.52 0,-11.85 -3.53,-22.15 -10.59,-30.9 -7.05,-8.75 -17.07,-15.67 -30.05,-20.75 -12.99,-5.08 -28.51,-7.62 -46.57,-7.62 -29.35,0 -53.06,6.92 -71.12,20.75 -18.06,13.83 -29.35,34 -33.86,60.53l-127.85 0c2.82,-64.34 24.27,-113.31 64.35,-146.89 40.07,-33.58 96.52,-50.38 169.33,-50.38 43.46,0 81.56,6.49 114.29,19.48 32.74,12.98 58.14,31.32 76.2,55.03 18.07,23.71 27.1,51.08 27.1,82.12 0,24.84 -6.49,46.15 -19.48,63.93 -12.98,17.78 -31.61,31.18 -55.88,40.21l-0.84 12.7c24.83,10.73 43.32,26.25 55.45,46.57 12.14,20.32 18.21,44.59 18.21,72.81 -0.57,32.17 -9.74,60.11 -27.52,83.82 -17.78,23.7 -42.9,42.33 -75.35,55.88 -32.46,13.54 -70.7,20.32 -114.72,20.32z"/>
  <path id="_3" class="fil4" d="M3805.38 12751.09l0 -520.69 131.23 0 0 159.17 32.18 0c55.31,0 98.63,15.95 129.96,47.84 31.32,31.89 46.99,76.05 46.99,132.5 -0.57,57 -16.37,101.45 -47.42,133.34 -31.04,31.89 -74.22,47.84 -129.53,47.84l-163.41 0zm131.23 -115.14l30.48 0c16.94,0 29.92,-5.93 38.95,-17.78 9.03,-11.86 13.55,-28.79 13.55,-50.8 0,-22.02 -4.52,-38.95 -13.55,-50.8 -9.03,-11.86 -22.01,-17.78 -38.95,-17.78l-30.48 0 0 137.16zm255.69 115.14l0.85 -520.69 131.23 0 0 520.69 -132.08 0z"/>
  <path id="_4" class="fil4" d="M4448.83 12751.09l0 -520.69 242.14 0c60.4,0 107.1,12.42 140.12,37.25 33.02,24.84 49.53,60.4 49.53,106.68 0,22.01 -6.06,41.77 -18.2,59.27 -12.14,17.49 -28.93,30.48 -50.38,38.94l0 12.7c24.84,8.47 44.31,22.72 58.42,42.76 14.11,20.04 21.17,44.16 21.17,72.39 0,47.97 -16.79,85.08 -50.38,111.33 -33.58,26.25 -81.13,39.37 -142.66,39.37l-249.76 0zm134.62 -111.76l115.99 0c18.63,0 33.02,-4.23 43.18,-12.7 10.16,-8.46 15.24,-20.88 15.24,-37.25 0,-16.93 -5.08,-29.63 -15.24,-38.1 -10.16,-8.47 -24.55,-12.7 -43.18,-12.7l-115.99 0 0 100.75zm0 -198.11l108.37 0c18.63,0 33.02,-4.24 43.18,-12.7 10.16,-8.47 15.24,-20.89 15.24,-37.26 0,-15.8 -5.08,-27.94 -15.24,-36.4 -10.16,-8.47 -24.55,-12.7 -43.18,-12.7l-108.37 0 0 99.06z"/>
  <path id="_5" class="fil4" d="M5620.59 12550.43l249.76 -154.09c25.4,-15.8 44.16,-33.02 56.3,-51.64 12.13,-18.63 18.2,-39.51 18.2,-62.65 0,-29.92 -8.18,-53.06 -24.55,-69.43 -16.37,-16.37 -39.79,-24.55 -70.27,-24.55 -28.79,0 -52.78,8.89 -71.97,26.67 -19.19,17.78 -32.17,43.88 -38.94,78.31l-135.47 0c2.82,-49.67 14.68,-92.14 35.56,-127.42 20.89,-35.28 49.25,-62.09 85.09,-80.43 35.84,-18.34 77.75,-27.52 125.73,-27.52 49.1,0 91.44,9.03 126.99,27.1 35.56,18.06 62.94,43.88 82.13,77.46 19.19,33.59 28.79,73.52 28.79,119.81 0,47.41 -12.56,89.46 -37.68,126.15 -25.12,36.68 -63.92,69.99 -116.41,99.9l-158.33 92.29 0 15.24 297.18 0 0 135.46 -452.11 0 0 -200.66z"/>
  <polygon id="_6" class="fil4" points="6260.65,12073.77 6683.13,12073.77 6683.13,12210.08 6402.88,12209.23 6402.88,12751.09 6259.8,12751.09 "/>
  <polygon id="_7" class="fil4" points="7270.7,12751.09 7136.93,12751.09 7136.08,12439.52 7145.39,12210.93 7129.31,12210.93 7000.61,12751.09 6785.57,12751.09 6784.72,12073.77 6919.34,12073.77 6919.34,12385.34 6910.87,12613.93 6926.11,12613.93 7054.8,12073.77 7271.54,12073.77 "/>
  <path id="_8" class="fil4" d="M7632.21 12767.18c-84.66,0 -149.01,-29.92 -193.04,-89.75 -44.02,-59.83 -66.03,-148.16 -66.03,-265 0,-116.84 22.57,-205.17 67.73,-265 45.15,-59.83 111.47,-89.75 198.96,-89.75 49.11,0 91.44,10.16 127,30.48 35.56,20.32 63.64,49.96 84.24,88.9 20.6,38.95 32.31,86.08 35.14,141.39l-130.39 0c-8.47,-43.46 -22.15,-76.06 -41.06,-97.79 -18.91,-21.73 -43.89,-32.59 -74.93,-32.59 -41.77,0 -72.81,18.48 -93.13,55.45 -20.32,36.97 -30.48,93.28 -30.48,168.91 0,75.63 9.59,131.94 28.79,168.91 19.19,36.97 48.25,55.45 87.2,55.45 28.79,0 52.35,-10.16 70.7,-30.48 18.34,-20.32 31.75,-50.51 40.21,-90.59l130.39 0c-3.39,53.06 -15.24,98.35 -35.56,135.89 -20.32,37.53 -47.84,66.18 -82.55,85.93 -34.71,19.76 -75.78,29.64 -123.19,29.64z"/>
  <path class="fil4" d="M3054.31 8999.54c-84.66,0 -149.01,-29.92 -193.04,-89.75 -44.02,-59.83 -66.03,-148.16 -66.03,-265 0,-116.84 22.57,-205.17 67.73,-265 45.15,-59.83 111.47,-89.75 198.96,-89.75 49.11,0 91.44,10.16 127,30.48 35.56,20.32 63.64,49.96 84.24,88.9 20.6,38.95 32.31,86.08 35.14,141.39l-130.39 0c-8.47,-43.46 -22.15,-76.06 -41.06,-97.79 -18.91,-21.73 -43.89,-32.59 -74.93,-32.59 -41.77,0 -72.81,18.48 -93.13,55.45 -20.32,36.97 -30.48,93.28 -30.48,168.91 0,75.63 9.59,131.94 28.79,168.91 19.19,36.97 48.25,55.45 87.2,55.45 28.79,0 52.35,-10.16 70.7,-30.48 18.34,-20.32 31.75,-50.51 40.21,-90.59l130.39 0c-3.39,53.06 -15.24,98.35 -35.56,135.89 -20.32,37.53 -47.84,66.18 -82.55,85.93 -34.71,19.76 -75.78,29.64 -123.19,29.64z"/>
  <polygon id="_1_0" class="fil4" points="3405.67,8983.45 3405.67,8462.76 3532.66,8462.76 3531.82,8707.44 3526.74,8864.92 3541.13,8864.07 3661.35,8462.76 3865.4,8462.76 3864.55,8983.45 3739.25,8983.45 3738.4,8738.77 3745.17,8581.29 3729.09,8582.14 3608.86,8983.45 "/>
  <path id="_2_1" class="fil4" d="M4242.15 8998.69c-50.23,0 -94.12,-11.01 -131.65,-33.02 -37.54,-22.01 -66.32,-53.48 -86.36,-94.4 -20.04,-40.92 -30.06,-89.32 -30.06,-145.2 0,-57.57 10.3,-107.1 30.9,-148.59 20.61,-41.48 49.96,-73.52 88.06,-96.09 38.1,-22.58 82.54,-34.15 133.34,-34.72 46.29,0.57 86.5,10.3 120.65,29.21 34.15,18.91 61.1,45.44 80.86,79.59 19.75,34.15 30.48,74.36 32.17,120.65l-122.77 0.84c-7.33,-34.43 -20.6,-61.1 -39.79,-80.01 -19.19,-18.9 -43.18,-28.36 -71.96,-28.36 -37.26,0 -66.61,13.69 -88.05,41.06 -21.45,27.38 -32.18,66.18 -32.18,116.42 0.57,47.98 11.15,85.23 31.75,111.76 20.6,26.52 48.97,39.79 85.09,39.79 25.4,0 46.99,-7.9 64.77,-23.71 17.78,-15.8 30.9,-38.1 39.37,-66.88l123.61 0c-3.39,43.46 -15.1,81.13 -35.14,113.02 -20.03,31.9 -46.56,56.45 -79.58,73.66 -33.02,17.22 -70.7,25.54 -113.03,24.98z"/>
  <polygon id="_3_2" class="fil4" points="4752.68,8983.45 4751.83,8584.68 4583.35,8585.52 4581.65,8462.76 5058.32,8463.61 5059.16,8584.68 4889.83,8585.52 4888.99,8983.45 "/>
  <path id="_4_3" class="fil4" d="M5285.21 8668.5l288.71 0 -44.87 50.8c0,-51.37 -8.89,-90.03 -26.67,-116 -17.78,-25.96 -44.73,-38.94 -80.86,-38.94 -36.68,0 -64.48,13.69 -83.39,41.06 -18.91,27.38 -28.36,65.62 -28.36,114.72 0,53.06 9.31,93.27 27.94,120.65 18.62,27.37 47.69,41.06 87.2,41.06 22.58,0 42.47,-5.22 59.69,-15.66 17.21,-10.44 32.03,-25.26 44.45,-44.45l132.08 0c-11.29,37.82 -28.23,69.99 -50.8,96.52 -22.58,26.53 -49.81,46.7 -81.7,60.53 -31.9,13.83 -67.6,20.75 -107.11,20.75 -50.8,0 -94.4,-11.01 -130.8,-33.02 -36.41,-22.02 -64.35,-53.91 -83.82,-95.67 -19.47,-41.77 -29.21,-92.01 -29.21,-150.71 0,-55.88 10.02,-104.28 30.05,-145.2 20.04,-40.92 48.41,-72.53 85.09,-94.82 36.69,-22.3 79.59,-33.45 128.69,-33.45 47.98,0 88.9,10.73 122.77,32.18 33.86,21.45 59.97,52.35 78.31,92.7 18.35,40.36 27.52,89.61 27.52,147.75 0,9.03 -0.42,17.49 -1.27,25.39 -0.85,7.91 -1.55,15.24 -2.12,22.02l-361.52 0 0 -98.21z"/>
  <polygon id="_5_4" class="fil4" points="5758.49,8983.45 5758.49,8462.76 5949.83,8462.76 6001.47,8773.48 6016.71,8773.48 6067.51,8462.76 6252.93,8462.76 6252.93,8983.45 6131.01,8983.45 6131.01,8853.07 6140.32,8587.22 6125.09,8587.22 6074.29,8890.32 5937.13,8890.32 5886.33,8587.22 5871.09,8587.22 5880.4,8853.07 5880.4,8983.45 "/>
  <path id="_6_5" class="fil4" d="M6692.34 8654.1l0 102.45 -124.46 18.62c-18.06,2.83 -32.03,9.18 -41.91,19.05 -9.88,9.88 -14.82,22.16 -14.82,36.83 0,15.81 5.22,28.37 15.67,37.68 10.44,9.31 25.54,13.97 45.29,13.97 20.89,0 39.65,-4.52 56.3,-13.55 16.65,-9.03 29.92,-21.02 39.8,-35.98 9.87,-14.96 14.81,-31.47 14.81,-49.53l0 -130.38c0,-28.79 -7.48,-50.66 -22.43,-65.62 -14.96,-14.96 -37.68,-22.44 -68.16,-22.44 -20.32,0 -38.38,3.39 -54.18,10.16 -15.81,6.78 -28.51,16.51 -38.1,29.21 -9.6,12.7 -16.09,28.08 -19.48,46.15l-132.07 0c3.95,-42.34 16.36,-78.74 37.25,-109.22 20.88,-30.48 48.96,-53.9 84.24,-70.27 35.28,-16.37 76.34,-24.56 123.19,-24.56 72.25,0 127.56,16.8 165.94,50.38 38.38,33.58 57.57,82.27 57.57,146.05l0 340.35 -133.77 0 0 -51.65 -31.32 0c-10.16,20.89 -24.84,36.83 -44.03,47.84 -19.19,11.01 -44.03,16.51 -74.5,16.51 -31.61,0 -59.55,-6.35 -83.82,-19.05 -24.27,-12.7 -43.18,-30.48 -56.73,-53.34 -13.54,-22.86 -20.32,-49.25 -20.32,-79.16 0,-45.72 14.25,-82.69 42.76,-110.91 28.5,-28.22 69.56,-46.57 123.19,-55.03l154.09 -24.56z"/>
  <path id="_7_6" class="fil4" d="M1894.41 9670.93l0 -120.22 12.7 0c14.68,0 26.67,-1.69 35.98,-5.08 9.32,-3.39 16.66,-9.74 22.02,-19.05 5.36,-9.31 9.59,-23 12.7,-41.06 3.1,-18.07 4.94,-41.49 5.5,-70.28l10.16 -271.77 380.99 0 0 520.69 -137.15 0 0 -398.77 -119.38 0 -5.93 181.18c-1.69,49.11 -6.35,88.48 -13.97,118.11 -7.62,29.63 -18.91,52.07 -33.86,67.31 -14.96,15.24 -34.15,25.54 -57.58,30.9 -23.42,5.36 -51.5,8.04 -84.24,8.04l-27.94 0z"/>
  <path id="_8_7" class="fil4" d="M2746.14 9679.4c-50.8,0.56 -94.83,-10.44 -132.08,-33.02 -37.25,-22.58 -66.04,-54.47 -86.36,-95.67 -20.32,-41.2 -30.48,-90.03 -30.48,-146.47 0,-56.44 10.16,-105.41 30.48,-146.9 20.32,-41.48 49.25,-73.37 86.78,-95.67 37.54,-22.29 81.42,-33.44 131.66,-33.44 50.8,-0.56 94.82,10.44 132.07,33.02 37.26,22.58 66.04,54.61 86.36,96.09 20.32,41.49 30.48,90.46 30.48,146.9 0,56.44 -10.16,105.27 -30.48,146.47 -20.32,41.2 -49.1,72.95 -86.36,95.25 -37.25,22.29 -81.27,33.44 -132.07,33.44zm0 -121.07c37.25,0 66.04,-13.41 86.36,-40.22 20.32,-26.81 30.48,-64.77 30.48,-113.87 0,-49.67 -10.16,-87.91 -30.48,-114.72 -20.32,-26.81 -49.11,-40.22 -86.36,-40.22 -37.26,-0.56 -66.04,12.7 -86.36,39.79 -20.32,27.1 -30.48,65.48 -30.48,115.15 0,49.1 10.16,87.2 30.48,114.3 20.32,27.09 49.1,40.35 86.36,39.79z"/>
  <path id="_9" class="fil4" d="M3411.6 9664.16l-0.85 -175.26 -90.59 0c-41.77,0 -77.75,-6.77 -107.95,-20.32 -30.19,-13.54 -53.05,-33.16 -68.58,-58.84 -15.52,-25.68 -23.28,-56.86 -23.28,-93.55 -0.56,-36.13 7.06,-67.03 22.86,-92.71 15.81,-25.68 38.81,-45.44 69,-59.27 30.2,-13.83 66.18,-20.74 107.95,-20.74l228.6 0 0 520.69 -137.16 0zm-305.64 0l138 -202.35 146.47 0 -135.46 202.35 -149.01 0zm215.05 -281.93l90.59 0 -0.85 -120.23 -89.74 0c-22.02,0 -39.09,5.08 -51.22,15.24 -12.14,10.16 -17.93,25.12 -17.36,44.87 -0.57,19.19 5.22,34.01 17.36,44.45 12.13,10.44 29.2,15.67 51.22,15.67z"/>
  <path id="_10" class="fil4" d="M3672.36 9670.93l0 -120.22 12.7 0c14.68,0 26.67,-1.69 35.98,-5.08 9.32,-3.39 16.66,-9.74 22.02,-19.05 5.36,-9.31 9.59,-23 12.7,-41.06 3.1,-18.07 4.94,-41.49 5.5,-70.28l10.16 -271.77 380.99 0 0 520.69 -137.15 0 0 -398.77 -119.38 0 -5.93 181.18c-1.69,49.11 -6.35,88.48 -13.97,118.11 -7.62,29.63 -18.91,52.07 -33.86,67.31 -14.96,15.24 -34.15,25.54 -57.58,30.9 -23.42,5.36 -51.5,8.04 -84.24,8.04l-27.94 0z"/>
  <path id="_11" class="fil4" d="M4335.28 9664.16l0 -520.69 136.32 0.85 -0.85 158.32 110.06 0c61.53,0 109.64,15.8 144.36,47.41 34.71,31.61 51.78,76.2 51.22,133.77 0,57.01 -17.22,101.32 -51.65,132.93 -34.43,31.61 -82.69,47.41 -144.77,47.41l-244.69 0zm136.32 -122.76l99.05 0.84c24.27,0 42.62,-5.36 55.04,-16.08 12.41,-10.73 18.62,-25.69 18.62,-44.88 0,-20.88 -6.35,-36.4 -19.05,-46.56 -12.7,-10.16 -30.9,-15.52 -54.61,-16.09l-99.05 0 0 122.77z"/>
  <polygon id="_12" class="fil4" points="4895.76,9664.16 4896.61,9143.47 5032.07,9144.32 5033.77,9345.82 5201.4,9347.51 5200.56,9143.47 5337.71,9144.32 5337.71,9664.16 5201.4,9664.16 5200.56,9469.43 5032.07,9467.74 5033.77,9664.16 "/>
  <path id="_13" class="fil4" d="M5709.39 9679.4c-50.8,0.56 -94.83,-10.44 -132.08,-33.02 -37.25,-22.58 -66.04,-54.47 -86.36,-95.67 -20.32,-41.2 -30.48,-90.03 -30.48,-146.47 0,-56.44 10.16,-105.41 30.48,-146.9 20.32,-41.48 49.25,-73.37 86.78,-95.67 37.54,-22.29 81.42,-33.44 131.66,-33.44 50.8,-0.56 94.82,10.44 132.07,33.02 37.26,22.58 66.04,54.61 86.36,96.09 20.32,41.49 30.48,90.46 30.48,146.9 0,56.44 -10.16,105.27 -30.48,146.47 -20.32,41.2 -49.1,72.95 -86.36,95.25 -37.25,22.29 -81.27,33.44 -132.07,33.44zm0 -121.07c37.25,0 66.04,-13.41 86.36,-40.22 20.32,-26.81 30.48,-64.77 30.48,-113.87 0,-49.67 -10.16,-87.91 -30.48,-114.72 -20.32,-26.81 -49.11,-40.22 -86.36,-40.22 -37.26,-0.56 -66.04,12.7 -86.36,39.79 -20.32,27.1 -30.48,65.48 -30.48,115.15 0,49.1 10.16,87.2 30.48,114.3 20.32,27.09 49.1,40.35 86.36,39.79z"/>
  <path id="_14" class="fil4" d="M6316.43 9679.4c-50.23,0 -94.12,-11.01 -131.65,-33.02 -37.54,-22.01 -66.32,-53.48 -86.36,-94.4 -20.04,-40.92 -30.06,-89.32 -30.06,-145.2 0,-57.57 10.3,-107.1 30.9,-148.59 20.61,-41.48 49.96,-73.52 88.06,-96.09 38.1,-22.58 82.54,-34.15 133.34,-34.72 46.29,0.57 86.5,10.3 120.65,29.21 34.15,18.91 61.1,45.44 80.86,79.59 19.75,34.15 30.48,74.36 32.17,120.65l-122.77 0.84c-7.33,-34.43 -20.6,-61.1 -39.79,-80.01 -19.19,-18.9 -43.18,-28.36 -71.96,-28.36 -37.26,0 -66.61,13.69 -88.05,41.06 -21.45,27.38 -32.18,66.18 -32.18,116.42 0.57,47.98 11.15,85.23 31.75,111.76 20.6,26.52 48.97,39.79 85.09,39.79 25.4,0 46.99,-7.9 64.77,-23.71 17.78,-15.8 30.9,-38.1 39.37,-66.88l123.61 0c-3.39,43.46 -15.1,81.13 -35.14,113.02 -20.03,31.9 -46.56,56.45 -79.58,73.66 -33.02,17.22 -70.7,25.54 -113.03,24.98z"/>
  <polygon id="_15" class="fil4" points="6826.96,9664.16 6826.11,9265.39 6657.63,9266.23 6655.93,9143.47 7132.6,9144.32 7133.44,9265.39 6964.11,9266.23 6963.27,9664.16 "/>
  <polygon id="_16" class="fil4" points="7257.9,9664.16 7257.9,9143.47 7384.89,9143.47 7384.05,9388.15 7378.97,9545.63 7393.36,9544.78 7513.58,9143.47 7717.63,9143.47 7716.78,9664.16 7591.48,9664.16 7590.63,9419.48 7597.4,9262 7581.32,9262.85 7461.09,9664.16 "/>
  <path class="fil4" d="M3478.56 15796.96c-87.49,0.56 -153.81,-29.07 -198.97,-88.9 -45.15,-59.83 -67.73,-148.16 -67.73,-265 0,-116.84 22.58,-205.17 67.73,-265 45.16,-59.83 111.48,-89.46 198.97,-88.9 87.48,-0.56 153.81,29.07 198.96,88.9 45.15,59.83 67.73,148.16 67.73,265 0,116.84 -22.58,205.17 -67.73,265 -45.15,59.83 -111.48,89.46 -198.96,88.9zm0 -129.54c41.77,0 72.81,-18.48 93.13,-55.45 20.32,-36.97 30.76,-93.28 31.33,-168.91 -0.57,-75.63 -11.01,-131.94 -31.33,-168.91 -20.32,-36.97 -51.36,-55.45 -93.13,-55.45 -41.77,0 -72.81,18.48 -93.13,55.45 -20.32,36.97 -30.77,93.28 -31.33,168.91 0.56,75.63 11.01,131.94 31.33,168.91 20.32,36.97 51.36,55.45 93.13,55.45z"/>
  <polygon id="_1_8" class="fil4" points="4003.48,15781.72 4002.63,15382.95 3834.15,15383.79 3832.45,15261.03 4309.12,15261.88 4309.96,15382.95 4140.63,15383.79 4139.79,15781.72 "/>
  <path id="_2_9" class="fil4" d="M4679.1 15797.81c-69.43,0 -123.47,-15.67 -162.14,-46.99 -38.66,-31.33 -59.69,-77.19 -63.07,-137.58l129.54 0c3.95,22.57 14.25,39.65 30.9,51.22 16.65,11.57 38.24,17.36 64.77,17.36 16.93,0 31.75,-2.4 44.45,-7.2 12.7,-4.8 22.43,-11.57 29.21,-20.32 6.77,-8.75 10.44,-18.77 11,-30.06 0,-18.06 -5.92,-31.89 -17.78,-41.48 -11.85,-9.6 -28.5,-14.4 -49.95,-14.4l-61.81 0 -0.84 -96.51 67.73 0c21.45,0 38.1,-4.38 49.95,-13.13 11.86,-8.75 17.5,-21.59 16.94,-38.52 0,-11.85 -3.53,-22.15 -10.59,-30.9 -7.05,-8.75 -17.07,-15.67 -30.05,-20.75 -12.99,-5.08 -28.51,-7.62 -46.57,-7.62 -29.35,0 -53.06,6.92 -71.12,20.75 -18.06,13.83 -29.35,34 -33.86,60.53l-127.85 0c2.82,-64.34 24.27,-113.31 64.35,-146.89 40.07,-33.58 96.52,-50.38 169.33,-50.38 43.46,0 81.56,6.49 114.29,19.48 32.74,12.98 58.14,31.32 76.2,55.03 18.07,23.71 27.1,51.08 27.1,82.12 0,24.84 -6.49,46.15 -19.48,63.93 -12.98,17.78 -31.61,31.18 -55.88,40.21l-0.84 12.7c24.83,10.73 43.32,26.25 55.45,46.57 12.14,20.32 18.21,44.59 18.21,72.81 -0.57,32.17 -9.74,60.11 -27.52,83.82 -17.78,23.7 -42.9,42.33 -75.35,55.88 -32.46,13.54 -70.7,20.32 -114.72,20.32z"/>
  <path id="_3_10" class="fil4" d="M4997.43 15781.72l0 -520.69 131.23 0 0 159.17 32.18 0c55.31,0 98.63,15.95 129.96,47.84 31.32,31.89 46.99,76.05 46.99,132.5 -0.57,57 -16.37,101.45 -47.42,133.34 -31.04,31.89 -74.22,47.84 -129.53,47.84l-163.41 0zm131.23 -115.14l30.48 0c16.94,0 29.92,-5.93 38.95,-17.78 9.03,-11.86 13.55,-28.79 13.55,-50.8 0,-22.02 -4.52,-38.95 -13.55,-50.8 -9.03,-11.86 -22.01,-17.78 -38.95,-17.78l-30.48 0 0 137.16zm255.69 115.14l0.85 -520.69 131.23 0 0 520.69 -132.08 0z"/>
  <path id="_4_11" class="fil4" d="M5640.88 15781.72l0 -520.69 242.14 0c60.4,0 107.1,12.42 140.12,37.25 33.02,24.84 49.53,60.4 49.53,106.68 0,22.01 -6.06,41.77 -18.2,59.27 -12.14,17.49 -28.93,30.48 -50.38,38.94l0 12.7c24.84,8.47 44.31,22.72 58.42,42.76 14.11,20.04 21.17,44.16 21.17,72.39 0,47.97 -16.79,85.08 -50.38,111.33 -33.58,26.25 -81.13,39.37 -142.66,39.37l-249.76 0zm134.62 -111.76l115.99 0c18.63,0 33.02,-4.23 43.18,-12.7 10.16,-8.46 15.24,-20.88 15.24,-37.25 0,-16.93 -5.08,-29.63 -15.24,-38.1 -10.16,-8.47 -24.55,-12.7 -43.18,-12.7l-115.99 0 0 100.75zm0 -198.11l108.37 0c18.63,0 33.02,-4.24 43.18,-12.7 10.16,-8.47 15.24,-20.89 15.24,-37.26 0,-15.8 -5.08,-27.94 -15.24,-36.4 -10.16,-8.47 -24.55,-12.7 -43.18,-12.7l-108.37 0 0 99.06z"/>
  <path id="_5_12" class="fil4" d="M3551.37 16462.43l-0.85 -175.26 -90.59 0c-41.77,0 -77.75,-6.77 -107.95,-20.32 -30.19,-13.54 -53.05,-33.16 -68.58,-58.84 -15.52,-25.68 -23.28,-56.86 -23.28,-93.55 -0.56,-36.13 7.06,-67.03 22.86,-92.71 15.81,-25.68 38.81,-45.44 69,-59.27 30.2,-13.83 66.18,-20.74 107.95,-20.74l228.6 0 0 520.69 -137.16 0zm-305.64 0l138 -202.35 146.47 0 -135.46 202.35 -149.01 0zm215.05 -281.93l90.59 0 -0.85 -120.23 -89.74 0c-22.02,0 -39.09,5.08 -51.22,15.24 -12.14,10.16 -17.93,25.12 -17.36,44.87 -0.57,19.19 5.22,34.01 17.36,44.45 12.13,10.44 29.2,15.67 51.22,15.67z"/>
  <polygon id="_6_13" class="fil4" points="3850.23,16462.43 3851.08,15941.74 3986.54,15942.59 3988.24,16144.09 4155.87,16145.78 4155.03,15941.74 4292.18,15942.59 4292.18,16462.43 4155.87,16462.43 4155.03,16267.7 3986.54,16266.01 3988.24,16462.43 "/>
  <path id="_7_14" class="fil4" d="M4396.32 16593.66l0 -253.15 31.32 0c9.6,-9.03 17.5,-20.46 23.71,-34.29 6.21,-13.83 11.15,-30.9 14.81,-51.22 3.67,-20.32 6.64,-45.01 8.89,-74.08 2.26,-29.07 4.1,-63.22 5.51,-102.45 1.41,-39.22 2.96,-84.8 4.65,-136.73l387.77 0 0 398.77 58.42 0 0 253.15 -127 0 0 -131.23 -281.09 0 0 131.23 -126.99 0zm175.25 -253.15l164.25 0 0 -276.85 -126.15 0c-2.26,42.89 -4.23,79.3 -5.92,109.22 -1.7,29.91 -3.81,55.17 -6.35,75.77 -2.54,20.6 -5.79,38.1 -9.74,52.49 -3.95,14.4 -9.31,27.52 -16.09,39.37z"/>
  <path id="_8_15" class="fil4" d="M5128.66 16147.48l288.71 0 -44.87 50.8c0,-51.37 -8.89,-90.03 -26.67,-116 -17.78,-25.96 -44.73,-38.94 -80.86,-38.94 -36.68,0 -64.48,13.69 -83.39,41.06 -18.91,27.38 -28.36,65.62 -28.36,114.72 0,53.06 9.31,93.27 27.94,120.65 18.62,27.37 47.69,41.06 87.2,41.06 22.58,0 42.47,-5.22 59.69,-15.66 17.21,-10.44 32.03,-25.26 44.45,-44.45l132.08 0c-11.29,37.82 -28.23,69.99 -50.8,96.52 -22.58,26.53 -49.81,46.7 -81.7,60.53 -31.9,13.83 -67.6,20.75 -107.11,20.75 -50.8,0 -94.4,-11.01 -130.8,-33.02 -36.41,-22.02 -64.35,-53.91 -83.82,-95.67 -19.47,-41.77 -29.21,-92.01 -29.21,-150.71 0,-55.88 10.02,-104.28 30.05,-145.2 20.04,-40.92 48.41,-72.53 85.09,-94.82 36.69,-22.3 79.59,-33.45 128.69,-33.45 47.98,0 88.9,10.73 122.77,32.18 33.86,21.45 59.97,52.35 78.31,92.7 18.35,40.36 27.52,89.61 27.52,147.75 0,9.03 -0.42,17.49 -1.27,25.39 -0.85,7.91 -1.55,15.24 -2.12,22.02l-361.52 0 0 -98.21z"/>
  <path id="_9_16" class="fil4" d="M5944.83 16462.43l-190.5 -252.3 203.2 -268.39 151.55 0 -198.96 260.77 195.57 259.92 -160.86 0zm-295.48 0l0 -520.69 137.16 0 0 520.69 -137.16 0z"/>
  <path id="_10_17" class="fil4" d="M6456.2 16477.67c-50.23,0 -94.12,-11.01 -131.65,-33.02 -37.54,-22.01 -66.32,-53.48 -86.36,-94.4 -20.04,-40.92 -30.06,-89.32 -30.06,-145.2 0,-57.57 10.3,-107.1 30.9,-148.59 20.61,-41.48 49.96,-73.52 88.06,-96.09 38.1,-22.58 82.54,-34.15 133.34,-34.72 46.29,0.57 86.5,10.3 120.65,29.21 34.15,18.91 61.1,45.44 80.86,79.59 19.75,34.15 30.48,74.36 32.17,120.65l-122.77 0.84c-7.33,-34.43 -20.6,-61.1 -39.79,-80.01 -19.19,-18.9 -43.18,-28.36 -71.96,-28.36 -37.26,0 -66.61,13.69 -88.05,41.06 -21.45,27.38 -32.18,66.18 -32.18,116.42 0.57,47.98 11.15,85.23 31.75,111.76 20.6,26.52 48.97,39.79 85.09,39.79 25.4,0 46.99,-7.9 64.77,-23.71 17.78,-15.8 30.9,-38.1 39.37,-66.88l123.61 0c-3.39,43.46 -15.1,81.13 -35.14,113.02 -20.03,31.9 -46.56,56.45 -79.58,73.66 -33.02,17.22 -70.7,25.54 -113.03,24.98z"/>
  <polygon class="fil4" points="3209.34,6054.86 3209.34,5038.88 3497.62,5038.88 3576.36,5555.76 3599.22,5555.76 3676.69,5038.88 3956.09,5038.88 3956.09,6054.86 3771.94,6054.86 3771.94,5624.34 3785.91,5225.56 3763.05,5225.56 3686.85,5731.02 3479.84,5731.02 3402.38,5225.56 3379.52,5225.56 3393.49,5624.34 3393.49,6054.86 "/>
  <path id="_1_18" class="fil4" d="M4279.94 5582.43l433.06 0 -67.31 76.2c0,-77.05 -13.33,-135.04 -40,-173.99 -26.67,-38.95 -67.1,-58.42 -121.29,-58.42 -55.03,0 -96.73,20.53 -125.09,61.59 -28.36,41.07 -42.54,98.43 -42.54,172.09 0,79.58 13.97,139.91 41.9,180.97 27.94,41.06 71.55,61.59 130.81,61.59 33.87,0 63.71,-7.83 89.54,-23.49 25.82,-15.67 48.04,-37.89 66.67,-66.68l198.12 0c-16.94,56.73 -42.34,104.99 -76.2,144.78 -33.87,39.79 -74.72,70.06 -122.55,90.81 -47.84,20.74 -101.39,31.11 -160.66,31.11 -76.2,0 -141.6,-16.51 -196.21,-49.53 -54.61,-33.02 -96.52,-80.85 -125.73,-143.51 -29.21,-62.65 -43.81,-138 -43.81,-226.05 0,-83.82 15.03,-156.42 45.08,-217.81 30.06,-61.38 72.6,-108.79 127.64,-142.23 55.03,-33.45 119.37,-50.17 193.03,-50.17 71.97,0 133.35,16.09 184.15,48.26 50.8,32.17 89.96,78.53 117.47,139.06 27.52,60.54 41.28,134.41 41.28,221.62 0,13.54 -0.64,26.24 -1.91,38.1 -1.27,11.85 -2.33,22.86 -3.17,33.02l-542.28 0 0 -147.32z"/>
  <polygon id="_2_19" class="fil4" points="5029.23,6054.86 5030.5,5273.82 5233.69,5275.09 5236.23,5577.35 5487.69,5579.89 5486.42,5273.82 5692.16,5275.09 5692.16,6054.86 5487.69,6054.86 5486.42,5762.76 5233.69,5760.22 5236.23,6054.86 "/>
  <path id="_3_20" class="fil4" d="M6400.81 6078.99c-61.81,0 -112.82,-14.82 -153.03,-44.45 -40.22,-29.63 -69.85,-74.93 -88.9,-135.89 -19.05,-60.96 -28.58,-139.27 -28.58,-234.94 0,-94.83 9.53,-172.72 28.58,-233.68 19.05,-60.96 48.68,-106.26 88.9,-135.89 40.21,-29.63 91.22,-44.45 153.03,-44.45 62.65,0 113.88,14.82 153.67,44.45 39.79,29.63 69.42,74.93 88.9,135.89 19.47,60.96 29.21,138.85 29.21,233.68 0,95.67 -9.74,173.98 -29.21,234.94 -19.48,60.96 -49.11,106.26 -88.9,135.89 -39.79,29.63 -91.02,44.45 -153.67,44.45zm-541.01 -24.13l0 -781.04 200.66 0 0 304.8 114.29 0 0 182.87 -114.29 0 0 293.37 -200.66 0zm535.93 -158.75c19.47,0 35.14,-7.62 46.99,-22.86 11.85,-15.24 20.53,-40 26.03,-74.29 5.51,-34.29 8.26,-79.37 8.26,-135.25 0,-55.88 -2.75,-100.76 -8.26,-134.62 -5.5,-33.87 -14.18,-58.42 -26.03,-73.66 -11.85,-15.24 -27.52,-22.86 -46.99,-22.86 -18.63,0 -34.08,7.62 -46.35,22.86 -12.28,15.24 -21.17,39.79 -26.67,73.66 -5.51,33.86 -8.26,78.74 -8.26,134.62 0,55.88 2.75,100.96 8.26,135.25 5.5,34.29 14.39,59.05 26.67,74.29 12.27,15.24 27.72,22.86 46.35,22.86z"/>
  <polygon class="fil4" points="2371.6,18838.98 2794.08,18838.98 2794.08,18975.29 2513.83,18974.44 2513.83,19516.3 2370.75,19516.3 "/>
  <path id="_1_21" class="fil4" d="M2910.91 19685.63l0 -690.02 136.31 0.85 0.85 48.26 31.32 0c10.16,-19.19 25.68,-34.43 46.57,-45.72 20.88,-11.29 44.02,-16.94 69.42,-16.94 41.21,0.57 77.47,11.86 108.8,33.87 31.32,22.01 55.45,53.62 72.39,94.82 16.93,41.21 25.4,89.75 25.4,145.63 0,55.88 -8.47,104.28 -25.4,145.2 -16.94,40.92 -41.07,72.53 -72.39,94.82 -31.33,22.3 -67.59,33.45 -108.8,33.45 -25.96,0 -49.24,-5.65 -69.85,-16.94 -20.6,-11.29 -35.98,-26.52 -46.14,-45.72l-32.17 0 0.85 218.44 -137.16 0zm243.83 -276.85c36.13,-0.57 64.35,-14.12 84.67,-40.64 20.32,-26.53 30.48,-63.78 30.48,-111.76 0,-48.54 -10.02,-86.22 -30.06,-113.03 -20.04,-26.81 -48.4,-40.22 -85.09,-40.22 -36.68,0.57 -65.19,14.12 -85.51,40.64 -20.32,26.53 -30.48,64.07 -30.48,112.61 0,47.98 10.16,85.37 30.48,112.18 20.32,26.81 48.83,40.22 85.51,40.22z"/>
  <path id="_2_22" class="fil4" d="M3472.23 18995.61l140.55 0 117.68 373.37 74.51 0 -27.94 104.99 -149.01 0 -155.79 -478.36zm521.54 0l-158.32 574.88c-12.42,42.89 -32.46,75.49 -60.12,97.78 -27.65,22.3 -61.8,33.45 -102.44,33.45 -50.24,0 -89.46,-13.69 -117.69,-41.07 -28.22,-27.37 -44.87,-67.59 -49.95,-120.64l119.38 0c6.21,16.36 12.84,28.08 19.9,35.13 7.05,7.06 16.22,10.59 27.51,10.59 10.73,0 19.62,-3.96 26.67,-11.86 7.06,-7.9 13.12,-20.32 18.2,-37.25l147.32 -541.01 129.54 0z"/>
  <polygon id="_3_23" class="fil4" points="4108.91,19516.3 4108.91,18995.61 4539.01,18996.46 4539.85,19516.3 4402.7,19516.3 4402.7,19119.22 4245.22,19116.68 4246.07,19516.3 "/>
  <polygon id="_4_24" class="fil4" points="4701.56,19516.3 4701.56,18995.61 5131.66,18996.46 5132.5,19516.3 4995.35,19516.3 4995.35,19119.22 4837.87,19116.68 4838.72,19516.3 "/>
  <path id="_5_25" class="fil4" d="M5603.24 19186.95l0 102.45 -124.46 18.62c-18.06,2.83 -32.03,9.18 -41.91,19.05 -9.88,9.88 -14.82,22.16 -14.82,36.83 0,15.81 5.22,28.37 15.67,37.68 10.44,9.31 25.54,13.97 45.29,13.97 20.89,0 39.65,-4.52 56.3,-13.55 16.65,-9.03 29.92,-21.02 39.8,-35.98 9.87,-14.96 14.81,-31.47 14.81,-49.53l0 -130.38c0,-28.79 -7.48,-50.66 -22.43,-65.62 -14.96,-14.96 -37.68,-22.44 -68.16,-22.44 -20.32,0 -38.38,3.39 -54.18,10.16 -15.81,6.78 -28.51,16.51 -38.1,29.21 -9.6,12.7 -16.09,28.08 -19.48,46.15l-132.07 0c3.95,-42.34 16.36,-78.74 37.25,-109.22 20.88,-30.48 48.96,-53.9 84.24,-70.27 35.28,-16.37 76.34,-24.56 123.19,-24.56 72.25,0 127.56,16.8 165.94,50.38 38.38,33.58 57.57,82.27 57.57,146.05l0 340.35 -133.77 0 0 -51.65 -31.32 0c-10.16,20.89 -24.84,36.83 -44.03,47.84 -19.19,11.01 -44.03,16.51 -74.5,16.51 -31.61,0 -59.55,-6.35 -83.82,-19.05 -24.27,-12.7 -43.18,-30.48 -56.73,-53.34 -13.54,-22.86 -20.32,-49.25 -20.32,-79.16 0,-45.72 14.25,-82.69 42.76,-110.91 28.5,-28.22 69.56,-46.57 123.19,-55.03l154.09 -24.56z"/>
  <polygon id="_6_26" class="fil4" points="6624.29,19516.3 6623.44,18974.44 6432.1,18975.29 6431.25,18838.98 6957.87,18838.98 6957.87,18974.44 6766.52,18975.29 6765.68,19516.3 "/>
  <polygon id="_7_27" class="fil4" points="7112.8,18838.98 7535.28,18838.98 7535.28,18975.29 7255.03,18974.44 7255.03,19516.3 7111.95,19516.3 "/>
 </g>
</svg>
